<?xml version="1.0" encoding="UTF-8"?>
<!DOCTYPE svg PUBLIC "-//W3C//DTD SVG 1.1//EN" "http://www.w3.org/Graphics/SVG/1.1/DTD/svg11.dtd">
<!-- Creator: CorelDRAW 2021 (64-Bit) -->
<svg xmlns="http://www.w3.org/2000/svg" xml:space="preserve" width="2.74837in" height="2.80338in" version="1.1" style="shape-rendering:geometricPrecision; text-rendering:geometricPrecision; image-rendering:optimizeQuality; fill-rule:evenodd; clip-rule:evenodd"
viewBox="0 0 2751.29 2806.35"
 xmlns:xlink="http://www.w3.org/1999/xlink"
 xmlns:xodm="http://www.corel.com/coreldraw/odm/2003">
 <defs>
  <style type="text/css">
   <![CDATA[
    .fil0 {fill:#75E59B}
   ]]>
  </style>
 </defs>
 <g id="Layer_x0020_1">
  <metadata id="CorelCorpID_0Corel-Layer"/>
  <path class="fil0" d="M509.76 2625.62c-12.98,-4 -21.12,-14.01 -23.85,-25.59 -2.57,-10.87 2.79,-19.56 4.3,-27.62l69.63 -232.67c3.31,-10.81 6.78,-19.82 9.91,-30.06 3.11,-10.07 6.22,-20.14 9.3,-30.23l10.28 -29.37c2.56,-5.99 2.84,-6.94 6.5,-11.13 8.43,-9.55 20.05,-12.45 33.62,-9.74 17.28,3.47 30.13,23.36 25.88,37.22l-104.56 340.03c-2.26,7.32 -10.16,13.92 -16.25,17.13 -6.35,3.38 -15.26,4.94 -24.77,2.02zm1848.95 -2625.62l22.48 5.66c0.09,6.4 4.33,5.61 11.16,8.85 6.68,3.17 5.82,4.2 10.27,8.19 22.75,20.4 36.46,56.94 51.24,83.98 0.15,0.26 0.35,0.64 0.5,0.9 0.14,0.26 0.36,0.63 0.5,0.89 0.15,0.26 0.37,0.63 0.5,0.89l85.34 161.49c0.15,0.26 0.36,0.63 0.5,0.9l1.92 3.63c1.2,2.19 1.82,3.15 3.13,5.29 2.9,4.77 3.17,6.22 5.5,11.04l97.57 185.22c2.16,4.19 3.73,6.21 5.96,10.76 1.89,3.86 1.15,2.15 3.06,5.33 1.75,2.92 1.31,2.45 2.81,5.49 1.12,2.27 1.74,3.35 2.87,5.45l41.71 78.93c14.81,27.1 27.09,52.08 37.32,81.56 1.66,4.78 5.49,19.82 5.37,25.44 -0.17,7.34 -2.74,9.47 2.89,12.6l-8.13 32.32c-6.25,0.09 -3.41,-0.62 -6.48,5.13 -3.14,5.86 -1.3,4.43 -5.66,8.51 -6.12,5.7 -6.24,7.47 -12.93,12.32 -2.68,1.95 -0.74,0.63 -3.44,2.22l-29.44 10.66c-4.76,-0.04 -4.99,-0.84 -9.79,-0.41 -3.94,0.35 -4.7,1.1 -10.19,0.93 -7.33,-0.22 -15.79,-3.17 -23.32,-5.07l-158.87 -39.97 -188.67 388.65c-15.76,24.04 -29.1,50.73 -45.6,79.92 -43.27,76.49 -117.69,132.01 -210.62,147.44l-1022.52 169.84c-142.98,23.73 -130.43,4.75 -172.42,141.3l-122.64 398.78c-8.58,27.85 -23.66,87.21 -33.07,109.12 -3.82,8.93 -8.75,14.74 -15.61,18.34 -3.94,2.07 -5.64,3.01 -10.51,3.55 -21.13,2.31 -40.79,-12.43 -40.17,-34.31 0.59,-22.13 -1.08,-11.78 6.13,-33.02l5.78 -16.43c6.95,-22.67 14.76,-48.64 -3.03,-65.55 -13.07,-12.39 -36.29,-17.53 -51.74,-8.55 -18.33,10.68 -26.19,38.56 -31.83,59l-31.68 109.01c-1.28,4.12 -1.27,6.04 -2.19,9.43 -1.71,6.27 -4.63,12.63 -5.57,18.96 -2.21,14.88 -13.5,42.59 -23.01,51.04 -15.3,13.6 -45.04,8.29 -52.95,-11.84 -3.48,-8.94 -2.92,-22.55 0.2,-33.17l4.1 -15.64c1.08,-3.43 1.83,-3.77 2.92,-7.16 27.13,-84.42 28.85,-91.42 54.95,-176.3 3.46,-11.25 6.83,-20.14 10.28,-31.3l5.18 -14.59c4.22,-13.7 8.43,-31.16 8.25,-44.68 -0.09,-9.21 -2.17,-16.13 -7.61,-22.83 -14.96,-18.34 -44.55,-25.14 -62.08,-6.56 -6.25,6.62 -9.01,6.39 -12.59,18.2 -1.55,5.25 -3.05,7.63 -4.6,12.76l-12.76 39.33c-1.4,4.52 -2.79,9.04 -4.15,13.58 -1.61,5.23 -3.24,8.14 -4.63,12.73 -2.69,8.88 -5.44,17.72 -8.16,26.56 -2.81,9.12 -4.58,17.09 -7.55,26.73 -11.16,36.31 2.92,-7.59 -8.17,28.54 -2.9,9.43 -4.58,17.04 -7.35,26.1 -2.82,9.04 -5.58,18.1 -8.35,27.14 -2.81,9.14 -4.6,17.13 -7.56,26.74 -4.37,14.18 -12.08,45.02 -20.79,56.32 -1.89,2.41 -3.14,6.9 -4.86,9.36 -13.27,19.2 -54.25,9.28 -58.77,-13.73 -0.85,-4.28 -0.2,-6.26 0.99,-11.39 1.95,-8.38 -0.06,-12.93 3,-22.74 2.63,-8.52 4.34,-16.34 7.13,-25.5l31.35 -101.82c2.07,-6.87 4.41,-12.17 6.68,-19.55 27.3,-88.76 19.28,-56.45 46.48,-144.85 1.82,-5.96 3.63,-11.95 5.51,-17.91l7.37 -26.11c1.97,-6.7 4.22,-18.42 6.75,-26.31 1.84,-5.73 -0.82,-8.58 -2.14,-13.85 -3.85,-15.2 -11.37,-26.08 -27.34,-31.01 -19.56,-5.99 -42.15,1.7 -50.77,20.23 -4.71,10.15 -9.03,22.66 -12.69,34.58 -2.09,6.79 -4.21,11.45 -6.12,17.72l-6.46 20.96c-29.07,94.62 -18.17,68.27 -47.28,162.85l-16.23 48.37c-8.21,22.61 -37.42,33.93 -56.81,17.18 -14.52,-12.52 -10.32,-36.1 -4.89,-53.72 13.72,-44.62 4.71,-10.69 18.37,-55.12 7.09,-22.98 12.93,-44.3 20.07,-67.46l6.81 -24.26c1.19,-3.79 0.91,-4.95 1.79,-8.19 3.79,-13.74 10.65,-32.96 7.3,-46.23 -1.04,-4.07 -2.92,-8.29 -5.28,-11.68 -12.38,-17.66 -36.88,-24.14 -56.06,-13.98 -3.78,2.01 -8.93,5.79 -11.68,9.17 -1.76,2.16 -3.28,4.05 -4.8,6.54 -4.74,7.76 -7.42,18.21 -10.97,27.06 -2.34,5.83 -4.39,14.12 -6.29,20.32 -2.2,7.21 -4.45,12.23 -6.5,18.94 -23.34,76.51 -21.38,73.69 -44.96,150.3 -5.18,16.89 -22.15,36.43 -41.14,30.58 -11.27,-3.48 -18.75,-8.46 -23.71,-17.94 -10.89,-20.83 0.86,-33.74 4.93,-55.3 1.81,-9.61 6,-21.39 9.18,-31.72l240.59 -712.49 32.36 -90.75c47,-131.77 194.88,-187.4 344.48,-211.52l1050.27 -169.38c111.13,-17.33 135.7,-53.9 175.65,-117.92 18.52,-29.68 32.03,-61.61 44.42,-94.01l-138.66 -34.89c-24,-6.03 -13.94,-1.62 -31.43,-12.25 -3.79,-2.3 -4.94,-2.15 -8.88,-4.24 -4.04,-2.14 -15.08,-14.54 -18.66,-19.88 -7.01,-10.47 -6.18,-13.44 -9.77,-24.01 -4.47,-13.16 4.19,-13.07 -4.25,-17.76l8.13 -32.32c6.57,-0.09 5.71,-4.27 8.9,-11.06 2.6,-5.54 4.63,-5.61 8.19,-10.27 10.76,-14.05 33.11,-30.12 47.65,-40.11l35.46 -24.57c2.61,-1.73 2.51,-1.84 5.01,-3.61l92.22 -61.41c2.55,-1.8 2.32,-1.84 4.99,-3.63 0.35,-0.23 1.38,-0.87 1.73,-1.1l3.42 -2.26c4.47,-2.91 5.92,-3.95 10.08,-7.11l41 -27.26c1,-0.66 1.81,-1.23 2.55,-1.72l49.19 -33.54c0.25,-0.17 0.61,-0.39 0.86,-0.55l20.6 -13.48c0.25,-0.16 0.61,-0.39 0.87,-0.55l69.01 -46.33c4.75,-2.79 5.81,-4.28 10.03,-7.18 3.66,-2.52 6.82,-3.87 10.56,-6.3 3.68,-2.4 6.3,-4.85 9.87,-7.45l112.65 -75.18c4.15,-2.72 5.98,-4.36 9.98,-7.27l30.62 -20.68c16.32,-11.88 25.9,-16.45 44.47,-21.47 20.99,-5.68 21.38,3.5 25.9,-4.61zm-2229.89 2274.13c-12.67,-3.91 -23.41,-17.26 -22.92,-29.19 0.69,-17.42 6.33,-45.48 15.11,-64.68 3.64,-7.95 4.7,-10.65 9.74,-15.72 19.53,-19.73 57.04,-4.43 57.96,21.5 0.56,16.01 -8.4,48.89 -16.44,67.65 -7.11,16.6 -25.81,25.86 -43.45,20.44zm330.08 531.42c-10.65,-3.27 -16.13,-5.63 -22.96,-15.74 -9.25,-13.72 -4.06,-30.38 0.68,-45.83 2.98,-9.64 4.67,-17.22 7.55,-26.73 1.56,-5.12 -3.9,13.61 -2.32,8.38l8.79 -26.32c1.36,-3.38 3.38,-8.37 5.12,-11.78 5.97,-11.54 22.74,-19.54 37.54,-14.99l4.31 1.33c13.02,3.99 21.16,16.94 22.03,27.6 1.43,17.57 -11.09,47.68 -17.46,68.74 -4.91,16.28 -10.07,25.8 -23.81,33.04 -4.35,2.29 -13.06,4.24 -19.47,2.29zm-216.93 -363.18c-13.4,-4.12 -24.45,-13.05 -26.72,-26.67 -2.13,-12.73 3.19,-26.47 8.14,-42.55l10.4 -32.27c3.5,-11.35 6.02,-18.64 11.47,-24.5 20.6,-22.3 55.52,-12.05 60.1,15.55 2.09,12.71 3.11,5.58 -1.82,21.6 -9.27,29.88 1.88,-5.53 -7.33,24.46 -3.22,10.44 -13.2,40.93 -18.2,48.54 -4.22,6.42 -8.82,9.92 -15.17,13.31 -4.93,2.63 -13.61,4.74 -20.87,2.53zm131.21 99.66c-9.28,-2.85 -14.89,-8.33 -19.01,-14.22 -4.98,-7.11 -5.34,-12.32 -3.78,-22.8 4.53,-30.56 19.24,-74.39 28.85,-105.67 12.52,-40.75 -11.06,39.55 0.01,-1.65 5.55,-18.1 14.59,-55.44 27.3,-65.53 18.02,-14.33 45.09,-6.88 53.95,11.62 4,8.36 1.67,19.86 -0.75,29.36 -15.25,59.59 9.39,-24.56 -8.66,34.11 -1.04,3.46 -2.04,7.14 -3.2,10.52 -1.21,3.54 -2.59,5.82 -3.9,10.27 -1.07,3.72 -1.01,5.73 -2.37,10.05l-15.89 53.87c-6.68,21.71 -12.62,44.91 -33.76,50.4 -4.66,1.21 -12.47,1.58 -18.77,-0.35z"/>
 </g>
</svg>
